<svg height="512" viewBox="0 0 64 64" width="512" xmlns="http://www.w3.org/2000/svg"><g id="Ebook"><rect fill="#6d6e71" height="54" rx="4" width="38" x="13" y="3"/><path d="m48 8v41a2.006 2.006 0 0 1 -2 2h-28a2.006 2.006 0 0 1 -2-2v-41a2.006 2.006 0 0 1 2-2h6a2.006 2.006 0 0 1 2 2 2.006 2.006 0 0 0 2 2h8a2.006 2.006 0 0 0 2-2 2.006 2.006 0 0 1 2-2h6a2.006 2.006 0 0 1 2 2z" fill="#ffcd00"/><path d="m46 6h-6a2.006 2.006 0 0 0 -2 2 2.006 2.006 0 0 1 -2 2h-8a2.006 2.006 0 0 1 -2-2 2.006 2.006 0 0 0 -2-2h-6a2.006 2.006 0 0 0 -2 2v28.909l31.983-29.075a2 2 0 0 0 -1.983-1.834z" fill="#ffda44"/><path d="m8 20h-4v31h9 38 9v-31h-4z" fill="#2488ff"/><path d="m13 51v2a4 4 0 0 0 4 4h30a4 4 0 0 0 4-4v-2z" fill="#6d6e71"/><path d="m47 57h-30a4 4 0 0 1 -4-4v4a4 4 0 0 0 4 4h30a4 4 0 0 0 4-4v-4a4 4 0 0 1 -4 4z" fill="#58595b"/><path d="m27.589 15.53a24 24 0 0 0 -15.178 0l-4.411 1.47v32l4.411-1.47a24 24 0 0 1 15.178 0l4.411 1.47v-32z" fill="#ffe477"/><path d="m51.589 15.53a24 24 0 0 0 -15.178 0l-4.411 1.47v32l4.411-1.47a24 24 0 0 1 15.178 0l4.411 1.47v-32z" fill="#ffeb99"/><path d="m12.411 47.53-4.411 1.47v2l4.411-1.47a24 24 0 0 1 15.178 0l4.411 1.47v-2l-4.411-1.47a24 24 0 0 0 -15.178 0z" fill="#006df0"/><path d="m36.411 47.53-4.411 1.47v2l4.411-1.47a24 24 0 0 1 15.178 0l4.411 1.47v-2l-4.411-1.47a24 24 0 0 0 -15.178 0z" fill="#006df0"/><g fill="#ffcd00"><path d="m26.684 41.18a1 1 0 1 0 .632-1.9 25.146 25.146 0 0 0 -15.811 0 1 1 0 1 0 .633 1.9 23.148 23.148 0 0 1 14.546 0z"/><path d="m12.138 37.18a23.148 23.148 0 0 1 14.546 0 1 1 0 1 0 .632-1.9 25.146 25.146 0 0 0 -15.811 0 1 1 0 1 0 .633 1.9z"/><path d="m12.138 33.18a23.148 23.148 0 0 1 14.546 0 1 1 0 1 0 .632-1.9 25.146 25.146 0 0 0 -15.811 0 1 1 0 1 0 .633 1.9z"/><path d="m12.138 29.18a23.148 23.148 0 0 1 14.546 0 1 1 0 1 0 .632-1.9 25.146 25.146 0 0 0 -15.811 0 1 1 0 0 0 .633 1.9z"/><path d="m12.138 25.18a23.148 23.148 0 0 1 14.546 0 1 1 0 1 0 .632-1.9 25.146 25.146 0 0 0 -15.811 0 1 1 0 0 0 .633 1.9z"/></g><path d="m37.316 41.18a23.148 23.148 0 0 1 14.546 0 1 1 0 0 0 .633-1.9 25.146 25.146 0 0 0 -15.811 0 1 1 0 1 0 .632 1.9z" fill="#ffda44"/><path d="m37.316 37.18a23.148 23.148 0 0 1 14.546 0 1 1 0 1 0 .633-1.9 25.146 25.146 0 0 0 -15.811 0 1 1 0 1 0 .632 1.9z" fill="#ffda44"/><path d="m37.316 33.18a23.148 23.148 0 0 1 14.546 0 1 1 0 1 0 .633-1.9 25.146 25.146 0 0 0 -15.811 0 1 1 0 1 0 .632 1.9z" fill="#ffda44"/><path d="m37.316 29.18a23.148 23.148 0 0 1 14.546 0 1 1 0 0 0 .633-1.9 25.146 25.146 0 0 0 -15.811 0 1 1 0 1 0 .632 1.9z" fill="#ffda44"/><path d="m37.316 25.18a23.148 23.148 0 0 1 14.546 0 1 1 0 0 0 .633-1.9 25.146 25.146 0 0 0 -15.811 0 1 1 0 1 0 .632 1.9z" fill="#ffda44"/><path d="m29 6h2v2h-2z" fill="#f1f2f2"/><path d="m33 6h2v2h-2z" fill="#f1f2f2"/><path d="m29 53h6v2h-6z" fill="#f1f2f2"/></g></svg>