<?xml version="1.0"?>
<svg xmlns="http://www.w3.org/2000/svg" xmlns:xlink="http://www.w3.org/1999/xlink" xmlns:svgjs="http://svgjs.com/svgjs" version="1.1" width="512" height="512" x="0" y="0" viewBox="0 0 512 512" style="enable-background:new 0 0 512 512" xml:space="preserve" class=""><g><g xmlns="http://www.w3.org/2000/svg"><path d="m287 0h-92c-41.367 0-75 33.647-75 75v32c0 31.904-20.244 60.381-50.332 70.854-7.822 2.725-11.953 11.265-9.258 19.087 2.168 6.196 7.969 10.078 14.18 10.078 1.641 0 3.311-.264 4.922-.835 15.661-5.447 29.388-14.394 40.488-25.748v76.564c0 8.291 6.709 15 15 15s15-6.709 15-15v-182c0-24.814 20.186-45 45-45h92c24.814 0 45 20.186 45 45v32c0 8.291 6.709 15 15 15s15-6.709 15-15v-32c0-41.353-33.633-75-75-75z" fill="#ffa000" data-original="#cee2e6" style="" class=""/><g id="Mp3_Player_1_"><g><path d="m497 512h-240c-8.291 0-15-6.709-15-15v-390c0-8.291 6.709-15 15-15h240c8.291 0 15 6.709 15 15v390c0 8.291-6.709 15-15 15z" fill="#333a40" data-original="#f25a3c" style="" class=""/></g><g><path d="m135 332c-24.814 0-45-20.186-45-45s20.186-45 45-45 45 20.186 45 45-20.186 45-45 45z" fill="#ffc213" data-original="#ebf2f2" style="" class=""/><circle cx="135" cy="287" fill="#475259" r="15" data-original="#475259" style="" class=""/></g><g><path d="m45 242c-24.814 0-45-20.186-45-45s20.186-45 45-45 45 20.186 45 45-20.186 45-45 45z" fill="#ffc213" data-original="#ebf2f2" style="" class=""/><circle cx="45" cy="197" fill="#475259" r="15" data-original="#475259" style="" class=""/></g></g><path d="m497 92h-120v420h120c8.291 0 15-6.709 15-15v-390c0-8.291-6.709-15-15-15z" fill="#475259" data-original="#e63a3a" style="" class=""/><g><path d="m377 452c-41.367 0-75-33.647-75-75s33.633-75 75-75 75 33.647 75 75-33.633 75-75 75z" fill="#ffc213" data-original="#ebf2f2" style="" class=""/></g><path d="m452 377c0-41.353-33.633-75-75-75v150c41.367 0 75-33.647 75-75z" fill="#ffa000" data-original="#cee2e6" style="" class=""/><g><circle cx="377" cy="377" fill="#475259" r="15" data-original="#475259" style="" class=""/></g><path d="m392 377c0-8.286-6.716-15-15-15v30c8.284 0 15-6.716 15-15z" fill="#333a40" data-original="#333a40" style="" class=""/><g><path d="m437 272h-120c-8.291 0-15-6.709-15-15v-90c0-8.291 6.709-15 15-15h120c8.291 0 15 6.709 15 15v90c0 8.291-6.709 15-15 15z" fill="#475259" data-original="#475259" style="" class=""/></g><path d="m437 152h-60v120h60c8.291 0 15-6.709 15-15v-90c0-8.291-6.709-15-15-15z" fill="#333a40" data-original="#333a40" style="" class=""/></g></g></svg>
