<svg height="512" viewBox="0 0 512 512" width="512" xmlns="http://www.w3.org/2000/svg"><path d="m376 278.208v-62.208h-80v62.208l-22 10.666 62 47.126 62-47.126z" fill="#fec9a3"/><path d="m457.925 304.854-59.925-15.98-14-16-48 32-48-32-14 16-53.05 16.579a48 48 0 0 0 -29.7 26.676l-71.25 163.871h72l48-112v112h248v-152a40.514 40.514 0 0 0 -30.075-39.146z" fill="#c7c7c5"/><path d="m376 254.318v-38.318h-80v38.318a87.469 87.469 0 0 0 80 0z" fill="#feb784"/><path d="m412 44a68.283 68.283 0 0 0 -48.284-20h-55.432a68.284 68.284 0 0 0 -68.284 68.284v99.716l-8 32h208l-8-32v-99.716a68.283 68.283 0 0 0 -20-48.284z" fill="#c7c7c5"/><g fill="#b0b0ae"><path d="m341.461 85.234 15.75 2.86 10.689-62.844.164-1.035c-1.446-.092-2.889-.215-4.346-.215h-11.969l-7.624 46.57z"/><path d="m363.781 82.7 15.11 5.282 2.093-6 7.816 10.418 37.217-27.914a68.193 68.193 0 0 0 -8.124-13.647l-35.165 26.142.7-2.012 15.937-39.852.331-.783a68.219 68.219 0 0 0 -14.268-6.718l-16.983 41.743z"/><path d="m392.367 92.336 4.594 15.328 35.039-11.25v-4.13a68.169 68.169 0 0 0 -1.147-12.2l-25.153 8.252z"/><path d="m312.047 72.883 1.336 12 15.906-1.766-1.4-12.429-7.781-46.688h-11.824c-1.468 0-2.92.123-4.376.217l.2 1.1z"/><path d="m282.273 92.2 8.538-10.447 2.259 6.783 15.188-5.062-4.828-14.443-16.6-41.507a68.168 68.168 0 0 0 -14.51 6.8l16.089 40.205.923 2.768-4.532-3.697-30.622-22.854a68.143 68.143 0 0 0 -8.23 13.818l28.99 21.636z"/><path d="m280.531 93.07-38.331-12.765-1.036-.3a68.14 68.14 0 0 0 -1.164 12.279v4.146l35.469 11.828z"/></g><path d="m416 120h-8v48h8a24 24 0 0 0 24-24 24 24 0 0 0 -24-24z" fill="#feb784"/><path d="m256.4 120h-.4a24.071 24.071 0 0 0 -24 24 24.071 24.071 0 0 0 24 24h8.48l-.48-48z" fill="#feb784"/><path d="m408 104v72a72 72 0 0 1 -70.95 71.99c-.35.01-.7.01-1.05.01a72.006 72.006 0 0 1 -72-72v-72a32 32 0 0 1 32-32h80a32 32 0 0 1 32 32z" fill="#fec9a3"/><path d="m408 104v72a72 72 0 0 1 -70.95 71.99 87.831 87.831 0 0 0 36-70.99v-48a87.618 87.618 0 0 0 -20.96-57h23.91a32 32 0 0 1 32 32z" fill="#fec093"/><circle cx="300" cy="140" fill="#7a432a" r="12"/><circle cx="372" cy="140" fill="#7a432a" r="12"/><path d="m288 96h96v16h-96z" fill="#f7a468"/><path d="m352 168h-32a40 40 0 0 0 -40 40h30.111a28.944 28.944 0 0 0 25.889-16 28.944 28.944 0 0 0 25.888 16h30.112a40 40 0 0 0 -40-40z" fill="#e0e0de"/><ellipse cx="116" cy="180" fill="#f35244" rx="13.102" ry="12.766"/><path d="m116 288c-29.516 0-45.438-55.641-45.438-108s15.922-108 45.438-108 45.438 55.641 45.438 108-15.922 108-45.438 108zm0-200c-12 0-29.438 35.836-29.438 92s17.438 92 29.438 92 29.438-35.836 29.438-92-17.438-92-29.438-92z" fill="#4db7e5"/><path d="m49.469 247.031c-14.031 0-24.961-3.883-30.383-12.914-2.266-3.773-4.453-10.211-1.984-19.406 5.828-21.773 35.773-50.383 76.3-72.883 48.1-26.719 104.61-40.766 119.516-15.945 2.266 3.773 4.453 10.211 1.984 19.406-5.828 21.773-35.773 50.383-76.3 72.883-30.602 16.992-64.61 28.859-89.133 28.859zm51.7-91.219c-41.75 23.188-64.836 48.93-68.609 63.04-.813 3.031-.727 5.4.25 7.031 6 10 47.187 6.515 98.031-21.7 41.75-23.188 64.836-48.93 68.609-63.04.813-3.031.727-5.4-.25-7.031-6-10-47.179-6.523-98.031 21.7z" fill="#4db7e5"/><path d="m182.531 247.031c-24.531 0-58.523-11.867-89.133-28.859-40.523-22.5-70.468-51.11-76.3-72.883-2.469-9.195-.282-15.633 1.984-19.406 14.906-24.821 71.406-10.766 119.516 15.945 40.523 22.5 70.468 51.11 76.3 72.883 2.469 9.195.282 15.633-1.984 19.406-5.422 9.031-16.352 12.914-30.383 12.914zm-81.367-42.843c50.836 28.21 92.016 31.7 98.031 21.7.977-1.633 1.063-4 .25-7.031-3.773-14.11-26.859-39.852-68.609-63.04-50.859-28.234-92.031-31.7-98.031-21.7-.977 1.633-1.063 4-.25 7.031 3.773 14.11 26.859 39.852 68.609 63.04z" fill="#4db7e5"/><path d="m488 344v152h-248v-111.13l-47.62 111.13h-72.38l71.25-163.87a48.034 48.034 0 0 1 29.7-26.68l53.05-16.58c29.07 45.02 94.93 45.02 124 0l59.93 15.98a40.528 40.528 0 0 1 30.07 39.15z" fill="#95573a"/><path d="m293.657 341.803 42.343-36.929-48-32-14 16h.182z" fill="#e0e0de"/><path d="m378.343 341.803-42.343-36.929 48-32 14 16h-.182z" fill="#e0e0de"/><path d="m184 392h-56l-3.077 40h59.077z" fill="#e0e0de"/><path d="m124.923 432-4.923 64h64v-64z" fill="#a36548"/><path d="m154.821 296.467a15.563 15.563 0 0 0 -10.145 22.058l7.324 14.647h-36.669a48 48 0 0 1 -21.466-5.067l-7.972-3.986a9.6 9.6 0 0 0 -13.893 8.586v33.406a16 16 0 0 0 8.845 14.311l13.02 6.511a48 48 0 0 0 21.466 5.067h68.669v-58.828l-10.955-27.387a15.562 15.562 0 0 0 -18.224-9.318z" fill="#fec9a3"/><path d="m488 344v152h-248v-.02c91.66-38.12 168.14-82.42 231.57-184.56a40.519 40.519 0 0 1 16.43 32.58z" fill="#8f4d2e"/><path d="m424 384h16v112h-16z" fill="#61311b"/></svg>